<svg t="1709730452388" class="icon" viewBox="0 0 1024 1024" version="1.1" xmlns="http://www.w3.org/2000/svg" p-id="5190" width="200" height="200"><path d="M99.648 259.392l824.64 0.512a44.608 44.608 0 0 0 0-89.216L99.776 170.112a44.672 44.672 0 0 0-0.128 89.28zM924.288 439.04L99.776 438.528a44.672 44.672 0 0 0-0.064 89.28l824.64 0.576a44.608 44.608 0 1 0-0.064-89.344zM924.288 716.8l-824.512-0.576a44.608 44.608 0 0 0-0.064 89.216l824.64 0.64a44.672 44.672 0 0 0-0.064-89.28z" fill="#262536" p-id="5191"></path></svg>